<?xml version="1.0" encoding="UTF-8" standalone="no"?> <svg width="512" height="512" viewBox="0 0 512 512" fill="none" xmlns="http://www.w3.org/2000/svg">
<path d="M472 384H288V234.597C288.001 232.017 287.585 229.455 286.769 227.008L280 206.702V152C280 145.635 277.471 139.53 272.971 135.029C268.47 130.529 262.365 128 256 128C249.635 128 243.53 130.529 239.029 135.029C234.529 139.53 232 145.635 232 152V206.702L225.232 227.006C224.416 229.453 223.999 232.017 224 234.597V384H40C33.637 384.007 27.5368 386.538 23.0375 391.037C18.5382 395.537 16.0073 401.637 16 408V472C16.0073 478.363 18.5382 484.463 23.0375 488.963C27.5368 493.462 33.637 495.993 40 496H472C478.363 495.993 484.463 493.462 488.963 488.963C493.462 484.463 495.993 478.363 496 472V408C495.993 401.637 493.462 395.537 488.963 391.037C484.463 386.538 478.363 384.007 472 384ZM240 234.597C240 233.737 240.138 232.882 240.411 232.066L248 209.298V152C248 149.878 248.843 147.843 250.343 146.343C251.843 144.843 253.878 144 256 144C258.122 144 260.157 144.843 261.657 146.343C263.157 147.843 264 149.878 264 152V209.298L271.59 232.068C271.862 232.884 272 233.737 272 234.597V384H240V234.597ZM480 472C479.998 474.121 479.154 476.154 477.654 477.654C476.154 479.154 474.121 479.998 472 480H40C37.879 479.998 35.8456 479.154 34.3458 477.654C32.8461 476.154 32.0024 474.121 32 472V408C32.0024 405.879 32.8461 403.846 34.3458 402.346C35.8456 400.846 37.879 400.002 40 400H472C474.121 400.002 476.154 400.846 477.654 402.346C479.154 403.846 479.998 405.879 480 408V472Z" fill="url(#paint0_linear_462_2354)"/>
<path d="M80 432H56V448H80V432Z" fill="#1db8ea"/>
<path d="M256 432H96V448H256V432Z" fill="#1db8ea"/>
<path d="M384 432H360V448H384V432Z" fill="#1db8ea"/>
<path d="M424 432H400V448H424V432Z" fill="#1db8ea"/>
<path d="M464 432H440V448H464V432Z" fill="#1db8ea"/>
<path d="M311.226 145.324C312.575 137.297 312.157 129.073 310.004 121.224C307.85 113.375 304.01 106.089 298.754 99.8753C293.497 93.6612 286.948 88.6678 279.565 85.2428C272.181 81.8178 264.139 80.0435 256 80.0435C247.861 80.0435 239.819 81.8178 232.435 85.2428C225.052 88.6678 218.503 93.6612 213.246 99.8753C207.99 106.089 204.15 113.375 201.996 121.224C199.843 129.073 199.425 137.297 200.774 145.324L216.554 142.676C216.185 140.47 216 138.237 216 136C216 125.391 220.214 115.217 227.716 107.716C235.217 100.214 245.391 96.0001 256 96.0001C266.609 96.0001 276.783 100.214 284.284 107.716C291.786 115.217 296 125.391 296 136C296 138.237 295.815 140.47 295.446 142.676L311.226 145.324Z" fill="#1db8ea"/>
<path d="M195.328 220.478L204.672 207.489C189.543 196.625 178.251 181.241 172.421 163.552C166.592 145.862 166.525 126.778 172.232 109.048C177.938 91.3185 189.123 75.8563 204.176 64.8875C219.229 53.9187 237.374 48.009 256 48.009C274.626 48.009 292.771 53.9187 307.824 64.8875C322.877 75.8563 334.062 91.3185 339.768 109.048C345.475 126.778 345.408 145.862 339.579 163.552C333.749 181.241 322.457 196.625 307.328 207.489L316.672 220.478C334.549 207.637 347.891 189.455 354.778 168.549C361.665 147.644 361.742 125.092 354.997 104.14C348.252 83.188 335.033 64.9162 317.244 51.9543C299.454 38.9925 278.011 32.009 256 32.009C233.989 32.009 212.546 38.9925 194.756 51.9543C176.967 64.9162 163.748 83.188 157.003 104.14C150.258 125.092 150.335 147.644 157.222 168.549C164.109 189.455 177.451 207.637 195.328 220.478Z" fill="#1db8ea"/>
<path d="M400 136C400.018 158.444 394.473 180.543 383.863 200.321C373.253 220.099 357.907 236.94 339.197 249.338L348.057 262.662C368.916 248.813 386.033 230.027 397.886 207.972C409.739 185.916 415.961 161.275 416 136.237C416.039 111.198 409.893 86.5379 398.109 64.4459C386.325 42.3539 369.267 23.5143 348.45 9.60059L339.55 22.8975C358.158 35.317 373.411 52.1386 383.957 71.869C394.502 91.5994 400.013 113.628 400 136Z" fill="#1db8ea"/>
<path d="M163.55 262.399L172.45 249.103C153.852 236.674 138.605 219.85 128.061 200.122C117.516 180.393 112 158.369 112 136C112 113.631 117.516 91.6065 128.061 71.8782C138.605 52.1499 153.852 35.3263 172.45 22.8975L163.55 9.60059C142.766 23.492 125.729 42.294 113.947 64.3415C102.164 86.3889 96 111.002 96 136C96 160.998 102.164 185.611 113.947 207.659C125.729 229.706 142.766 248.508 163.55 262.399Z" fill="url(#paint9_linear_462_2354)"/>
<path d="M373.739 289.338L382.599 302.662C405.733 287.304 425.416 267.298 440.396 243.917C455.375 220.537 465.323 194.293 469.606 166.858C473.889 139.422 472.413 111.396 465.273 84.5618C458.132 57.7278 445.483 32.6744 428.131 10.9961L415.646 21.0039C431.61 40.9491 443.246 63.9994 449.814 88.6874C456.382 113.375 457.738 139.161 453.796 164.401C449.854 189.642 440.7 213.786 426.917 235.296C413.134 256.805 395.024 275.21 373.739 289.338V289.338Z" fill="#1db8ea"/>
<path d="M129.401 302.662L138.261 289.338C116.976 275.21 98.8659 256.805 85.0829 235.296C71.3 213.786 62.1462 189.642 58.2042 164.401C54.2622 139.161 55.6184 113.375 62.1863 88.6874C68.7543 63.9994 80.3903 40.9491 96.3535 21.0039L83.8691 10.9961C66.5169 32.6744 53.8679 57.7278 46.7273 84.5618C39.5867 111.396 38.1109 139.422 42.3939 166.858C46.6769 194.293 56.6248 220.537 71.6044 243.917C86.5841 267.298 106.267 287.304 129.401 302.662V302.662Z" fill="#1db8ea"/>
<defs>
<linearGradient id="paint0_linear_462_2354" x1="256" y1="1.84142" x2="256" y2="492.928" gradientUnits="userSpaceOnUse">
<stop stop-color="#2AB793"/>
<stop offset="1" stop-color="#2C98B5"/>
</linearGradient>
<linearGradient id="paint1_linear_462_2354" x1="1688" y1="461.463" x2="1688" y2="8318.85" gradientUnits="userSpaceOnUse">
<stop stop-color="#2AB793"/>
<stop offset="1" stop-color="#2C98B5"/>
</linearGradient>
<linearGradient id="paint2_linear_462_2354" x1="28256" y1="461.463" x2="28256" y2="8318.85" gradientUnits="userSpaceOnUse">
<stop stop-color="#2AB793"/>
<stop offset="1" stop-color="#2C98B5"/>
</linearGradient>
<linearGradient id="paint3_linear_462_2354" x1="9288" y1="461.463" x2="9288" y2="8318.85" gradientUnits="userSpaceOnUse">
<stop stop-color="#2AB793"/>
<stop offset="1" stop-color="#2C98B5"/>
</linearGradient>
<linearGradient id="paint4_linear_462_2354" x1="10288" y1="461.463" x2="10288" y2="8318.85" gradientUnits="userSpaceOnUse">
<stop stop-color="#2AB793"/>
<stop offset="1" stop-color="#2C98B5"/>
</linearGradient>
<linearGradient id="paint5_linear_462_2354" x1="11288" y1="461.463" x2="11288" y2="8318.85" gradientUnits="userSpaceOnUse">
<stop stop-color="#2AB793"/>
<stop offset="1" stop-color="#2C98B5"/>
</linearGradient>
<linearGradient id="paint6_linear_462_2354" x1="256" y1="1.84151" x2="256" y2="492.928" gradientUnits="userSpaceOnUse">
<stop stop-color="#2AB793"/>
<stop offset="1" stop-color="#2C98B5"/>
</linearGradient>
<linearGradient id="paint7_linear_462_2354" x1="256" y1="1.84139" x2="256" y2="492.928" gradientUnits="userSpaceOnUse">
<stop stop-color="#2AB793"/>
<stop offset="1" stop-color="#2C98B5"/>
</linearGradient>
<linearGradient id="paint8_linear_462_2354" x1="29339.8" y1="475.593" x2="29339.8" y2="124751" gradientUnits="userSpaceOnUse">
<stop stop-color="#2AB793"/>
<stop offset="1" stop-color="#2C98B5"/>
</linearGradient>
<linearGradient id="paint9_linear_462_2354" x1="10357.5" y1="475.109" x2="10357.5" y2="124621" gradientUnits="userSpaceOnUse">
<stop stop-color="#2AB793"/>
<stop offset="1" stop-color="#2C98B5"/>
</linearGradient>
<linearGradient id="paint10_linear_462_2354" x1="41925.2" y1="548.076" x2="41925.2" y2="143781" gradientUnits="userSpaceOnUse">
<stop stop-color="#2AB793"/>
<stop offset="1" stop-color="#2C98B5"/>
</linearGradient>
<linearGradient id="paint11_linear_462_2354" x1="8798.02" y1="548.076" x2="8798.02" y2="143781" gradientUnits="userSpaceOnUse">
<stop stop-color="#2AB793"/>
<stop offset="1" stop-color="#2C98B5"/>
</linearGradient>
</defs>
</svg>
