<?xml version="1.0" standalone="no"?>
<!DOCTYPE svg PUBLIC "-//W3C//DTD SVG 20010904//EN"
 "http://www.w3.org/TR/2001/REC-SVG-20010904/DTD/svg10.dtd">
<svg version="1.0" xmlns="http://www.w3.org/2000/svg"
 width="550.000000pt" height="504.000000pt" viewBox="0 0 550.000000 504.000000"
 preserveAspectRatio="xMidYMid meet">

<g transform="translate(0.000000,504.000000) scale(0.100000,-0.100000)"
fill="#fff" stroke="none">
<path d="M1003 5004 c-39 -19 -47 -38 -113 -239 -145 -450 -465 -1423 -657
-1999 -185 -559 -214 -654 -209 -688 8 -50 37 -106 68 -134 12 -11 266 -198
563 -416 297 -217 884 -647 1305 -954 421 -308 771 -564 779 -569 10 -6 11 -4
5 7 -5 8 -540 695 -1189 1527 -649 831 -1186 1521 -1194 1531 -13 20 -8 20
695 18 l708 -3 500 -1542 c276 -849 505 -1542 509 -1540 5 1 71 194 147 427
463 1423 860 2649 860 2654 0 3 -454 6 -1009 6 l-1010 0 -142 433 c-409 1251
-467 1424 -478 1446 -12 22 -66 51 -93 51 -7 0 -27 -8 -45 -16z"/>
<path d="M4460 5013 c-48 -18 -60 -47 -239 -592 -380 -1159 -431 -1314 -431
-1322 0 -5 317 -10 703 -11 l704 -3 -1198 -1535 c-659 -844 -1198 -1539 -1199
-1543 0 -5 21 7 48 25 83 60 2484 1819 2551 1869 93 70 101 85 101 200 l0 96
-219 664 c-121 365 -326 988 -455 1383 -130 395 -242 726 -249 734 -24 30 -83
47 -117 35z"/>
</g>
</svg>
