<?xml version="1.0" encoding="UTF-8" standalone="no"?> <svg fill="#1db8ea" height="613pt" viewBox="-83 -19 613 613.33452" width="613pt" xmlns="http://www.w3.org/2000/svg"><path d="m49.003906 214.875c-10.34375 10.476562-16.128906 24.617188-16.09375 39.34375v205.121094h-25.828125c-6.199219 0-11.230469 5.023437-11.230469 11.226562v93.207032c0 6.199218 5.03125 11.226562 11.230469 11.226562h241.4375c6.203125 0 11.230469-5.027344 11.230469-11.226562v-93.207032c0-6.203125-5.027344-11.226562-11.230469-11.226562h-17.964843v-11.257813c26.125-5.371093 44.882812-28.355469 44.914062-55.023437v-27.796875h155.800781c6.207031 0 11.230469-5.027344 11.230469-11.230469v-305.808594c0-6.203125-5.023438-11.226562-11.230469-11.226562h-25.757812v-25.765625c0-6.199219-5.03125-11.230469-11.230469-11.230469h-214.5625c-6.203125 0-11.226562 5.03125-11.226562 11.230469v108.945312l-118.445313 93.761719c-.367187.289062-.71875.597656-1.042969.9375zm188.289063 337.667969h-218.984375v-70.746094h218.984375zm182.75-493.089844v283.347656h-190.871094v-14.53125h165.109375c6.199219 0 11.230469-5.027343 11.230469-11.226562v-257.589844zm-36.988281-36.996094v283.355469h-193.917969l41.453125-41.453125c17.511718-17.550781 17.511718-45.96875 0-63.523437l-7.9375-7.9375c-4.03125-4.03125-10.445313-4.40625-14.914063-.863282l-16.789062 13.296875v-182.875zm-318.480469 208.621094 103.917969-82.261719v74.292969l-68.632813 54.34375c-4.859375 3.851563-5.683594 10.914063-1.832031 15.769531 3.847656 4.867188 10.910156 5.683594 15.773437 1.835938l100.039063-79.210938.871094.871094c8.765624 8.777344 8.765624 22.988281 0 31.761719l-47.648438 47.644531c-1.941406 1.949219-3.109375 4.542969-3.269531 7.289062l-.597657 10.390626c-.011718.214843-.019531.433593-.019531.648437.046875 8.269531 1.929688 16.429687 5.511719 23.878906 7.308594 15.699219 5.933594 34.066407-3.625 48.496094-1.230469 1.847656-1.886719 4.011719-1.886719 6.230469v22.457031c0 6.203125 5.027344 11.226563 11.226563 11.226563 6.203125 0 11.230468-5.023438 11.230468-11.226563v-19.210937c12.210938-20.566407 13.472657-45.835938 3.382813-67.519532-.085937-.167968-.152344-.339844-.230469-.515625h17.929688v25.765625c0 6.199219 5.027344 11.230469 11.226562 11.230469h35.070313v27.796875c-.023438 18.59375-15.085938 33.660156-33.683594 33.6875-6.199219 0-11.230469 5.023438-11.230469 11.226562v21.363282h-152.730468v-205.121094c-.019532-8.613281 3.277343-16.898438 9.207031-23.140625zm0 0"/><path d="m27.855469 518.292969c.308593 15.429687 13.011719 27.726562 28.449219 27.519531 15.433593-.203125 27.808593-12.824219 27.703124-28.261719-.101562-15.4375-12.640624-27.894531-28.078124-27.894531-15.648438.175781-28.203126 12.984375-28.074219 28.636719zm28.074219-6.179688c2.550781-.242187 4.992187 1.105469 6.140624 3.402344 1.148438 2.289063.769532 5.054687-.957031 6.949219-1.726562 1.902344-4.4375 2.539062-6.832031 1.617187-2.386719-.925781-3.96875-3.226562-3.96875-5.789062-.140625-3.253907 2.363281-6.015625 5.621094-6.179688zm0 0"/><path d="m287 224.6875c33.441406 0 60.554688-27.109375 60.554688-60.550781-.003907-33.449219-27.113282-60.554688-60.558594-60.554688-33.441406 0-60.554688 27.109375-60.546875 60.554688.03125 33.425781 27.125 60.511719 60.550781 60.550781zm0-98.648438c21.039062 0 38.097656 17.058594 38.097656 38.097657-.003906 21.039062-17.058594 38.09375-38.101562 38.09375-21.039063 0-38.097656-17.054688-38.089844-38.09375.023438-21.03125 17.066406-38.074219 38.09375-38.097657zm0 0"/></svg>